<?xml version="1.0" encoding="iso-8859-1"?>
<!-- Generator: Adobe Illustrator 16.0.4, SVG Export Plug-In . SVG Version: 6.00 Build 0)  -->
<!DOCTYPE svg PUBLIC "-//W3C//DTD SVG 1.1//EN" "http://www.w3.org/Graphics/SVG/1.1/DTD/svg11.dtd">
<svg version="1.1" id="Layer_1" xmlns="http://www.w3.org/2000/svg" xmlns:xlink="http://www.w3.org/1999/xlink" x="0px" y="0px"
	 width="48px" height="48px" viewBox="0 0 48 48" style="enable-background:new 0 0 48 48;" xml:space="preserve">
<g id="Torch">
	<g>
		<polygon style="fill:#332518;" points="21.349,28.323 22.59,41.6 24.166,41.6 24.166,28.323 		"/>
		<polygon style="fill:#261C11;" points="26.981,28.323 24.166,28.323 24.166,41.6 25.774,41.6 		"/>
	</g>
	<g>
		<polygon style="fill:#D8A55E;" points="24.366,25.91 24.366,28.323 29.396,28.323 29.797,25.91 		"/>
		<polygon style="fill:#EAAE68;" points="18.936,25.91 19.337,28.323 24.366,28.323 24.366,25.91 		"/>
	</g>
	<path style="fill:#F48260;" d="M27.384,19.473c-2.223,0-4.023-1.801-4.023-4.023c0-1.7,1.056-3.151,2.548-3.74
		c-0.583-0.183-1.202-0.283-1.844-0.283c-3.388,0-6.135,2.747-6.135,6.134c0,2.569,1.579,4.765,3.818,5.679
		c0.029-1.196,1.006-2.159,2.21-2.159c1.221,0,2.212,0.991,2.212,2.213c0,0.01-0.002,0.019-0.002,0.027
		c2.104-0.771,3.667-2.659,3.972-4.947C29.419,19.055,28.452,19.473,27.384,19.473z"/>
	<g>
		<path style="fill:#F48260;" d="M29.496,19.473c0.134,0,0.266-0.007,0.396-0.02c0.113-0.347,0.198-0.707,0.249-1.079
			c-0.474,0.446-1.056,0.777-1.7,0.954C28.777,19.42,29.13,19.473,29.496,19.473z"/>
		<path style="opacity:0.1;fill:#FFFFFF;" d="M20.042,17.562c0-3.029,2.198-5.54,5.086-6.038c-0.346-0.061-0.7-0.096-1.063-0.096
			c-3.388,0-6.135,2.747-6.135,6.134c0,2.569,1.579,4.765,3.818,5.679c0.01-0.41,0.137-0.787,0.34-1.113
			C20.834,21.005,20.042,19.378,20.042,17.562z"/>
		<path style="fill:#F48260;" d="M28.018,22.244c-0.374-0.691-1.105-1.162-1.947-1.162c-0.381,0-0.733,0.105-1.046,0.275
			c0.684,0.376,1.146,1.103,1.146,1.938c0,0.01-0.002,0.019-0.002,0.027C26.851,23.073,27.475,22.705,28.018,22.244z"/>
	</g>
</g>
</svg>
