<?xml version="1.0" encoding="iso-8859-1"?>
<!-- Generator: Adobe Illustrator 16.0.4, SVG Export Plug-In . SVG Version: 6.00 Build 0)  -->
<!DOCTYPE svg PUBLIC "-//W3C//DTD SVG 1.1//EN" "http://www.w3.org/Graphics/SVG/1.1/DTD/svg11.dtd">
<svg version="1.1" id="Layer_1" xmlns="http://www.w3.org/2000/svg" xmlns:xlink="http://www.w3.org/1999/xlink" x="0px" y="0px"
	 width="48px" height="48px" viewBox="0 0 48 48" style="enable-background:new 0 0 48 48;" xml:space="preserve">
<g id="Trophy">
	<g>
		<path style="fill:#EAAE68;" d="M14.792,5.579c0,7.86,1.194,19.65,9.334,19.65c0.084,0,0.162-0.008,0.245-0.012V5.579H14.792z"/>
		<path style="fill:#D8A55E;" d="M33.458,5.579h-9.087v19.638C32.286,24.978,33.458,13.358,33.458,5.579z"/>
	</g>
	<polygon style="fill:#FFFFFF;" points="24.371,9.286 25.88,12.344 29.255,12.834 26.813,15.214 27.39,18.576 24.371,16.989 
		21.352,18.576 21.928,15.214 19.487,12.834 22.862,12.344 	"/>
	<path style="fill:none;stroke:#D8A55E;stroke-width:2;stroke-linecap:round;stroke-linejoin:round;stroke-miterlimit:10;" d="
		M33.132,9.508h2.455V7.052h2.949c0,0,1.678,9.211-7.176,12.343"/>
	<path style="fill:none;stroke:#EAAE68;stroke-width:2;stroke-linecap:round;stroke-linejoin:round;stroke-miterlimit:10;" d="
		M14.956,9.508h-2.457V7.052H9.381c0,0-1.102,9.211,7.751,12.343"/>
	<g>
		<polygon style="fill:#D8A55E;" points="26.255,24.738 24.371,24.738 24.371,33.58 27.237,33.58 		"/>
		<polygon style="fill:#EAAE68;" points="22.324,24.738 21.341,33.58 24.371,33.58 24.371,24.738 		"/>
	</g>
	<g>
		<polygon style="fill:#334D56;" points="16.674,36.527 15.692,42.422 24.371,42.422 24.371,36.527 		"/>
		<polygon style="fill:#293D48;" points="31.903,36.527 24.371,36.527 24.371,42.422 32.886,42.422 		"/>
	</g>
	<g>
		<rect x="18.885" y="33.58" style="fill:#4B6B75;" width="5.485" height="2.947"/>
		<rect x="24.371" y="33.58" style="fill:#405A67;" width="5.322" height="2.947"/>
	</g>
</g>
</svg>
