<?xml version="1.0" encoding="iso-8859-1"?>
<!-- Generator: Adobe Illustrator 16.0.4, SVG Export Plug-In . SVG Version: 6.00 Build 0)  -->
<!DOCTYPE svg PUBLIC "-//W3C//DTD SVG 1.1//EN" "http://www.w3.org/Graphics/SVG/1.1/DTD/svg11.dtd">
<svg version="1.1" id="Layer_1" xmlns="http://www.w3.org/2000/svg" xmlns:xlink="http://www.w3.org/1999/xlink" x="0px" y="0px"
	 width="48px" height="48px" viewBox="0 0 48 48" style="enable-background:new 0 0 48 48;" xml:space="preserve">
<g id="Medal">
	<polygon style="fill:#F48260;" points="30.459,10.875 30.459,23.792 27.588,28.464 26.291,27.958 26.291,10.875 	"/>
	<polygon style="fill:#4B7B91;" points="17.542,10.875 17.542,23.792 20.591,28.788 21.708,27.958 21.708,10.875 	"/>
	<g>
		<path style="fill:#EAAE68;" d="M17.958,33.375c0,3.452,2.798,6.25,6.25,6.25v-12.5C20.757,27.125,17.958,29.923,17.958,33.375z"/>
		<path style="fill:#D8A55E;" d="M24.208,27.125v12.5c3.452,0,6.25-2.798,6.25-6.25S27.66,27.125,24.208,27.125z"/>
	</g>
	<polygon style="fill:#FFFFFF;" points="24.312,29.722 25.417,31.959 27.886,32.318 26.1,34.06 26.521,36.52 24.312,35.357 
		22.104,36.52 22.526,34.06 20.739,32.318 23.208,31.959 	"/>
	<g>
		<rect x="15.875" y="8.375" style="fill:#EAAE68;" width="8.438" height="2.917"/>
		<rect x="24.312" y="8.375" style="fill:#D8A55E;" width="7.812" height="2.917"/>
	</g>
</g>
</svg>
