<?xml version="1.0" encoding="iso-8859-1"?>
<!-- Generator: Adobe Illustrator 16.0.4, SVG Export Plug-In . SVG Version: 6.00 Build 0)  -->
<!DOCTYPE svg PUBLIC "-//W3C//DTD SVG 1.1//EN" "http://www.w3.org/Graphics/SVG/1.1/DTD/svg11.dtd">
<svg version="1.1" id="Layer_1" xmlns="http://www.w3.org/2000/svg" xmlns:xlink="http://www.w3.org/1999/xlink" x="0px" y="0px"
	 width="48px" height="48px" viewBox="0 0 48 48" style="enable-background:new 0 0 48 48;" xml:space="preserve">
<g id="Money">
	<polyline style="fill:#55A06E;" points="7,27.606 7,31.212 41,31.212 41,27.606 	"/>
	<g>
		<rect x="7" y="11.121" style="fill:#97BF6E;" width="17.516" height="17"/>
		<rect x="24.516" y="11.121" style="fill:#97BF6E;" width="16.484" height="17"/>
	</g>
	
		<polyline style="fill:none;stroke:#498A60;stroke-width:2;stroke-linecap:round;stroke-linejoin:round;stroke-miterlimit:10;" points="
		34.303,13.697 38.424,13.697 38.424,15.758 	"/>
	
		<polyline style="fill:none;stroke:#498A60;stroke-width:2;stroke-linecap:round;stroke-linejoin:round;stroke-miterlimit:10;" points="
		13.697,25.546 9.576,25.546 9.576,23.485 	"/>
	
		<line style="fill:none;stroke:#498A60;stroke-width:2;stroke-linecap:round;stroke-linejoin:round;stroke-miterlimit:10;" x1="9.576" y1="13.697" x2="13.697" y2="13.697"/>
	
		<line style="fill:none;stroke:#498A60;stroke-width:2;stroke-linecap:round;stroke-linejoin:round;stroke-miterlimit:10;" x1="34.303" y1="25.546" x2="38.424" y2="25.546"/>
	<polyline style="fill:#55A06E;" points="7,33.272 7,36.879 41,36.879 41,33.272 	"/>
	
		<circle style="fill:none;stroke:#498A60;stroke-width:2;stroke-linecap:round;stroke-linejoin:round;stroke-miterlimit:10;" cx="24.665" cy="19.814" r="5.409"/>
	<polyline style="fill:#97BF6E;" points="7,31.212 7,34.303 41,34.303 41,31.212 	"/>
	<rect x="24.516" y="11.121" style="opacity:0.1;" width="16.484" height="25.758"/>
</g>
</svg>
